/* XPM */
static char * smallicon_xpm[] = {
"16 16 152 2",
"  	c None",
". 	c #7A90AD",
"+ 	c #BABBBF",
"@ 	c #989DA7",
"# 	c #4C8DD7",
"$ 	c #FFFFFF",
"% 	c #E2E5EC",
"& 	c #A6A8AF",
"* 	c #031220",
"= 	c #2F80D6",
"- 	c #F6F6F6",
"; 	c #F4F4F4",
"> 	c #F5F5F5",
", 	c #F7F7F7",
"' 	c #DADEE6",
") 	c #DDDFE6",
"! 	c #8F96A0",
"~ 	c #071F38",
"{ 	c #297DD9",
"] 	c #F9F9F9",
"^ 	c #E9E9E9",
"/ 	c #EBEBEB",
"( 	c #EAEAEA",
"_ 	c #FBFBFB",
": 	c #F6F7F8",
"< 	c #F4F5F7",
"[ 	c #A8AAAF",
"} 	c #041E39",
"| 	c #112D4A",
"1 	c #247CDA",
"2 	c #FAFAFA",
"3 	c #FCFCFC",
"4 	c #FAFAFB",
"5 	c #F5F7F8",
"6 	c #DDDFE2",
"7 	c #253647",
"8 	c #183659",
"9 	c #287DD8",
"0 	c #E7E7E7",
"a 	c #E8E8E8",
"b 	c #E6E6E7",
"c 	c #E3E4E5",
"d 	c #D6D7D9",
"e 	c #3F5264",
"f 	c #142C48",
"g 	c #1C344E",
"h 	c #2E81D8",
"i 	c #FEFEFE",
"j 	c #FCFCFD",
"k 	c #F8F9FB",
"l 	c #586775",
"m 	c #153557",
"n 	c #394A5F",
"o 	c #3484D7",
"p 	c #E5E5E5",
"q 	c #E8E8E9",
"r 	c #E4E5E6",
"s 	c #66717D",
"t 	c #102E4E",
"u 	c #38516E",
"v 	c #87898E",
"w 	c #3A87D8",
"x 	c #F8F8F9",
"y 	c #F7F7F8",
"z 	c #88919B",
"A 	c #0F2F50",
"B 	c #34506F",
"C 	c #959BA0",
"D 	c #B4B7BD",
"E 	c #3583D1",
"F 	c #EEEEEE",
"G 	c #EDEDED",
"H 	c #EAEBEC",
"I 	c #E9EAEB",
"J 	c #AEAFB0",
"K 	c #2C3946",
"L 	c #354E6B",
"M 	c #8A9095",
"N 	c #EBEFF4",
"O 	c #B3B6BC",
"P 	c #1C73C7",
"Q 	c #87ACCB",
"R 	c #F3F4F4",
"S 	c #E7E7E4",
"T 	c #A1A19F",
"U 	c #B9B9B9",
"V 	c #9FA0A2",
"W 	c #898F94",
"X 	c #E0E3E8",
"Y 	c #E2E6EC",
"Z 	c #B2B6BC",
"` 	c #1074D4",
" .	c #0C5A9C",
"..	c #8F9799",
"+.	c #A69A8B",
"@.	c #725D3E",
"#.	c #522E01",
"$.	c #685946",
"%.	c #909091",
"&.	c #A8A9AC",
"*.	c #D6DADF",
"=.	c #E3E8ED",
"-.	c #0B74D7",
";.	c #3580B5",
">.	c #435253",
",.	c #6A3A00",
"'.	c #703C00",
").	c #693A00",
"!.	c #857562",
"~.	c #E8ECEF",
"{.	c #E8ECF0",
"].	c #E5EAEF",
"^.	c #E2E7ED",
"/.	c #E1E7ED",
"(.	c #B1B6BB",
"_.	c #0470D6",
":.	c #2780CD",
"<.	c #78A3BD",
"[.	c #886B47",
"}.	c #907654",
"|.	c #AFAFAE",
"1.	c #E2E6EA",
"2.	c #D2D6DA",
"3.	c #D0D4D9",
"4.	c #CFD3D9",
"5.	c #CDD1D6",
"6.	c #DDE3EA",
"7.	c #B1B5BB",
"8.	c #0670D6",
"9.	c #3B8DDC",
"0.	c #C4C6C8",
"a.	c #C2C4C6",
"b.	c #C0C3C5",
"c.	c #EFF2F6",
"d.	c #ECF0F4",
"e.	c #EAEEF3",
"f.	c #E7ECF2",
"g.	c #E5EAF0",
"h.	c #E3E9EF",
"i.	c #E0E7EE",
"j.	c #B0B4BB",
"k.	c #1574D4",
"l.	c #3D71A8",
"m.	c #9C9EA3",
"n.	c #9D9FA4",
"o.	c #9DA0A5",
"p.	c #9EA1A6",
"q.	c #9EA0A6",
"r.	c #9EA1A7",
"s.	c #9FA2A8",
"t.	c #A0A3A9",
"u.	c #989BA2",
". + + + + + + + + + @           ",
"# $ $ $ $ $ $ $ $ $ % &       * ",
"= - ; > > , > , - - ' ) !   ~   ",
"{ ] ^ ^ / ^ ^ ( ( _ : < [ } |   ",
"1 2 _ _ 3 3 3 3 _ 4 5 6 7 8     ",
"9 ; 0 0 0 a ^ ^ b c d e f g     ",
"h $ $ $ $ $ $ i j k l m n       ",
"o - p 0 a ( ^ q r s t u v       ",
"w > > , , x x y z A B C D       ",
"E $ F F G H I J K L M N O       ",
"P Q > - R S T U V W X Y Z       ",
"`  ...+.@.#.$.%.&.*.=.=.Z       ",
"-.;.>.,.'.).!.~.{.].^./.(.      ",
"_.:.<.[.}.|.1.2.3.4.5.6.7.      ",
"8.9.0.a.b.c.d.e.f.g.h.i.j.      ",
"k.l.m.n.o.o.p.q.r.s.s.t.u.      "};
